<svg viewBox="0 0 160 104" version="1.1" xmlns="http://www.w3.org/2000/svg" xmlns:xlink="http://www.w3.org/1999/xlink" id="el_JeV6PbKvK"><style>@-webkit-keyframes kf_el_nwnbV21v7HH_an_NFM6-59b-{0%{-webkit-transform:translate(-1.281410574913025px,-2.06320858001709px) translate(1.281410574913025px,2.06320858001709px) translate(0,60px);transform:translate(-1.281410574913025px,-2.06320858001709px) translate(1.281410574913025px,2.06320858001709px) translate(0,60px)}52%{-webkit-transform:translate(-1.281410574913025px,-2.06320858001709px) translate(1.281410574913025px,2.06320858001709px) translate(0,0);transform:translate(-1.281410574913025px,-2.06320858001709px) translate(1.281410574913025px,2.06320858001709px) translate(0,0)}}@keyframes kf_el_nwnbV21v7HH_an_NFM6-59b-{0%{-webkit-transform:translate(-1.281410574913025px,-2.06320858001709px) translate(1.281410574913025px,2.06320858001709px) translate(0,60px);transform:translate(-1.281410574913025px,-2.06320858001709px) translate(1.281410574913025px,2.06320858001709px) translate(0,60px)}52%{-webkit-transform:translate(-1.281410574913025px,-2.06320858001709px) translate(1.281410574913025px,2.06320858001709px) translate(0,0);transform:translate(-1.281410574913025px,-2.06320858001709px) translate(1.281410574913025px,2.06320858001709px) translate(0,0)}}@-webkit-keyframes kf_el_nwnbV21v7HH_an_byxo9fvOA{0%{opacity:0}52%{opacity:1}}@keyframes kf_el_nwnbV21v7HH_an_byxo9fvOA{0%{opacity:0}52%{opacity:1}}@-webkit-keyframes kf_el_SflN_Y9qnQ_an_FTBoSl29g{0%,90.67%{opacity:0}}@keyframes kf_el_SflN_Y9qnQ_an_FTBoSl29g{0%,90.67%{opacity:0}}@-webkit-keyframes kf_el_elBODbNrFx_an_Nhb5bw3yA{0%,73.33%{opacity:0}93.33%{opacity:1}}@keyframes kf_el_elBODbNrFx_an_Nhb5bw3yA{0%,73.33%{opacity:0}93.33%{opacity:1}}@-webkit-keyframes kf_el_IIwcJZFg4G_an_KGJo9yJY_{0%,90.67%{opacity:0}}@keyframes kf_el_IIwcJZFg4G_an_KGJo9yJY_{0%,90.67%{opacity:0}}@-webkit-keyframes kf_el_qZ-rvibZJX_an_lwSSCbS48{0%,72%{opacity:0}92%{opacity:1}}@keyframes kf_el_qZ-rvibZJX_an_lwSSCbS48{0%,72%{opacity:0}92%{opacity:1}}@-webkit-keyframes kf_el_iRXaKdNk85_an_WCKZjLLmH{0%,64%{opacity:0}80%{opacity:1}}@keyframes kf_el_iRXaKdNk85_an_WCKZjLLmH{0%,64%{opacity:0}80%{opacity:1}}@-webkit-keyframes kf_el_GV_hSLIO3R_an_LGcTZW8MC{0%,80%{opacity:0}}@keyframes kf_el_GV_hSLIO3R_an_LGcTZW8MC{0%,80%{opacity:0}}@-webkit-keyframes kf_el_SjSElTK8nF_an_pPkSrSRbd{0%,72%{opacity:0}}@keyframes kf_el_SjSElTK8nF_an_pPkSrSRbd{0%,72%{opacity:0}}@-webkit-keyframes kf_el_AP1Vjneq12_an_4B7TxGCRM{0%,80%{opacity:0}}@keyframes kf_el_AP1Vjneq12_an_4B7TxGCRM{0%,80%{opacity:0}}@-webkit-keyframes kf_el_nKNCvvmbs6_an_lfzxatXFr{0%,66.67%{opacity:0}}@keyframes kf_el_nKNCvvmbs6_an_lfzxatXFr{0%,66.67%{opacity:0}}@-webkit-keyframes kf_el_7uLTtUGBsC_an_ygrHwICy8{0%,46.67%{opacity:0}70.67%{opacity:1}}@keyframes kf_el_7uLTtUGBsC_an_ygrHwICy8{0%,46.67%{opacity:0}70.67%{opacity:1}}@-webkit-keyframes kf_el_Iab28vRivR_an_CAEyHZRv5{0%,68%{opacity:0}88%{opacity:1}}@keyframes kf_el_Iab28vRivR_an_CAEyHZRv5{0%,68%{opacity:0}88%{opacity:1}}@-webkit-keyframes kf_el_2l0T5MbkXa_an_2NfcwPItO{0%,46.67%{opacity:0}68%{opacity:1}}@keyframes kf_el_2l0T5MbkXa_an_2NfcwPItO{0%,46.67%{opacity:0}68%{opacity:1}}@-webkit-keyframes kf_el_AkefIcFXEh_an_c0lWcV8JT{0%,73.33%{opacity:0}}@keyframes kf_el_AkefIcFXEh_an_c0lWcV8JT{0%,73.33%{opacity:0}}#el_JeV6PbKvK *{-webkit-animation-duration:2.5s;animation-duration:2.5s;-webkit-animation-iteration-count:1;animation-iteration-count:1;-webkit-animation-timing-function:cubic-bezier(0,0,1,1);animation-timing-function:cubic-bezier(0,0,1,1)}#el_lmfOuwb-Tp{stroke:none;stroke-width:1;fill:none}#el_Chw_UhT114{fill:#fff}#el_2l0T5MbkXa,#el_AkefIcFXEh,#el_Iab28vRivR{-webkit-animation-fill-mode:forwards;animation-fill-mode:forwards}#el_AkefIcFXEh{fill:#dfe2e8;-webkit-transform:translate(107.81297150288px,-72.77534400321008px) rotate(-315deg);transform:translate(107.81297150288px,-72.77534400321008px) rotate(-315deg);-webkit-animation-name:kf_el_AkefIcFXEh_an_c0lWcV8JT;animation-name:kf_el_AkefIcFXEh_an_c0lWcV8JT;-webkit-animation-timing-function:cubic-bezier(.42,0,1,1);animation-timing-function:cubic-bezier(.42,0,1,1)}#el_2l0T5MbkXa,#el_Iab28vRivR{stroke:#dfe2e8;stroke-width:1.34146341}#el_2l0T5MbkXa{-webkit-animation-timing-function:cubic-bezier(.42,0,1,1);animation-timing-function:cubic-bezier(.42,0,1,1);-webkit-animation-name:kf_el_2l0T5MbkXa_an_2NfcwPItO;animation-name:kf_el_2l0T5MbkXa_an_2NfcwPItO}#el_Iab28vRivR{-webkit-animation-name:kf_el_Iab28vRivR_an_CAEyHZRv5;animation-name:kf_el_Iab28vRivR_an_CAEyHZRv5}#el_7uLTtUGBsC,#el_Iab28vRivR,#el_nKNCvvmbs6{-webkit-animation-timing-function:cubic-bezier(.42,0,1,1);animation-timing-function:cubic-bezier(.42,0,1,1)}#el_7uLTtUGBsC{stroke:#dfe2e8;stroke-width:1.34146341;-webkit-animation-fill-mode:forwards;animation-fill-mode:forwards;-webkit-animation-name:kf_el_7uLTtUGBsC_an_ygrHwICy8;animation-name:kf_el_7uLTtUGBsC_an_ygrHwICy8}#el_nKNCvvmbs6{fill:#dfe2e8;-webkit-transform:translate(79.61186574269914px,-75.1089615189928px) rotate(39deg);transform:translate(79.61186574269914px,-75.1089615189928px) rotate(39deg);-webkit-animation-name:kf_el_nKNCvvmbs6_an_lfzxatXFr;animation-name:kf_el_nKNCvvmbs6_an_lfzxatXFr}#el_AP1Vjneq12,#el_SjSElTK8nF,#el_nKNCvvmbs6{-webkit-animation-fill-mode:forwards;animation-fill-mode:forwards}#el_AP1Vjneq12{fill:#dfe2e8;-webkit-transform:translate(52.37802658409365px,-86.8786521945393px) rotate(39deg);transform:translate(52.37802658409365px,-86.8786521945393px) rotate(39deg);-webkit-animation-name:kf_el_AP1Vjneq12_an_4B7TxGCRM;animation-name:kf_el_AP1Vjneq12_an_4B7TxGCRM;-webkit-animation-timing-function:cubic-bezier(.42,0,1,1);animation-timing-function:cubic-bezier(.42,0,1,1)}#el_SjSElTK8nF{stroke:#e0e4e9;stroke-width:1.34146341;-webkit-transform:translate(316.9244569000808px,106.04143991391432px) scale(-1,1) rotate(-37deg);transform:translate(316.9244569000808px,106.04143991391432px) scale(-1,1) rotate(-37deg);-webkit-animation-name:kf_el_SjSElTK8nF_an_pPkSrSRbd;animation-name:kf_el_SjSElTK8nF_an_pPkSrSRbd;-webkit-animation-timing-function:cubic-bezier(0,0,.58,1);animation-timing-function:cubic-bezier(0,0,.58,1)}#el_GV_hSLIO3R,#el_iRXaKdNk85{stroke:#e0e4e9;stroke-width:1.34146341;-webkit-animation-timing-function:cubic-bezier(.42,0,1,1);animation-timing-function:cubic-bezier(.42,0,1,1)}#el_GV_hSLIO3R{-webkit-animation-fill-mode:forwards;animation-fill-mode:forwards;-webkit-transform:translate(47.18803375552771px,15.788895230978977px) scale(-1,1) rotate(-37deg);transform:translate(47.18803375552771px,15.788895230978977px) scale(-1,1) rotate(-37deg);-webkit-animation-name:kf_el_GV_hSLIO3R_an_LGcTZW8MC;animation-name:kf_el_GV_hSLIO3R_an_LGcTZW8MC}#el_iRXaKdNk85{-webkit-transform:translate(263.6636898063282px,88.22063653138372px) scale(-1,1) rotate(-37deg);transform:translate(263.6636898063282px,88.22063653138372px) scale(-1,1) rotate(-37deg);-webkit-animation-name:kf_el_iRXaKdNk85_an_WCKZjLLmH;animation-name:kf_el_iRXaKdNk85_an_WCKZjLLmH}#el_IIwcJZFg4G,#el_SflN_Y9qnQ,#el_elBODbNrFx,#el_iRXaKdNk85,#el_qZ-rvibZJX{-webkit-animation-fill-mode:forwards;animation-fill-mode:forwards}#el_qZ-rvibZJX{stroke:#dfe2e8;stroke-width:1.34146341;-webkit-animation-name:kf_el_qZ-rvibZJX_an_lwSSCbS48;animation-name:kf_el_qZ-rvibZJX_an_lwSSCbS48;-webkit-animation-timing-function:cubic-bezier(0,0,.58,1);animation-timing-function:cubic-bezier(0,0,.58,1)}#el_IIwcJZFg4G,#el_SflN_Y9qnQ,#el_elBODbNrFx{fill:#dfe2e8}#el_IIwcJZFg4G{-webkit-transform:translate(65.09579074876466px,20.065037121265803px) rotate(-315deg);transform:translate(65.09579074876466px,20.065037121265803px) rotate(-315deg);-webkit-animation-name:kf_el_IIwcJZFg4G_an_KGJo9yJY_;animation-name:kf_el_IIwcJZFg4G_an_KGJo9yJY_;-webkit-animation-timing-function:cubic-bezier(0,0,.58,1);animation-timing-function:cubic-bezier(0,0,.58,1)}#el_SflN_Y9qnQ,#el_elBODbNrFx{-webkit-animation-timing-function:cubic-bezier(.42,0,1,1);animation-timing-function:cubic-bezier(.42,0,1,1)}#el_elBODbNrFx{-webkit-transform:translate(71.68977848179581px,23.987064335972846px) scale(-1,1) rotate(-37deg);transform:translate(71.68977848179581px,23.987064335972846px) scale(-1,1) rotate(-37deg);-webkit-animation-name:kf_el_elBODbNrFx_an_Nhb5bw3yA;animation-name:kf_el_elBODbNrFx_an_Nhb5bw3yA}#el_SflN_Y9qnQ{-webkit-transform:translate(56.62945816818038px,18.947951648909225px) scale(-1,1) rotate(-37deg);transform:translate(56.62945816818038px,18.947951648909225px) scale(-1,1) rotate(-37deg);-webkit-animation-name:kf_el_SflN_Y9qnQ_an_FTBoSl29g;animation-name:kf_el_SflN_Y9qnQ_an_FTBoSl29g}#el_6HSsZTIavLh{-webkit-transform:translate(33px,30px);transform:translate(33px,30px)}#el_7UOXIYDK1by{fill:url(#linearGradient-2)}#el_mpA2z8hYfqB{fill:#000;fill-opacity:1}#el_LIc4CDs520f{fill:#fff}#el_nwnbV21v7HH{-webkit-transform:translate(44px,15px);transform:translate(44px,15px);-webkit-animation-fill-mode:forwards;animation-fill-mode:forwards;-webkit-animation-name:kf_el_nwnbV21v7HH_an_byxo9fvOA;animation-name:kf_el_nwnbV21v7HH_an_byxo9fvOA;-webkit-animation-timing-function:cubic-bezier(0,0,.58,1);animation-timing-function:cubic-bezier(0,0,.58,1)}#el_okBr5rqzgVe{-webkit-transform:translate(.781798px,0);transform:translate(.781798px,0);fill:url(#linearGradient-6);stroke:#fff;stroke-width:4.12641704}#el_-m82MT6Ij3u{-webkit-transform:translate(0,0);transform:translate(0,0)}#el_vjDgPCnF6lf{fill-opacity:.6;fill:#fff}#el_kzenbpNSs3Q{-webkit-transform:translate(17px,17px);transform:translate(17px,17px);fill:#fff;opacity:.6}#el_4HWJZ-EMrgH{-webkit-transform:translate(33px,51.515606px);transform:translate(33px,51.515606px);fill:url(#linearGradient-2)}#el_297t6letwyQ{-webkit-transform:translate(143.437374px,0) scale(-1,1);transform:translate(143.437374px,0) scale(-1,1)}#el_nwnbV21v7HH_an_NFM6-59b-{-webkit-animation-fill-mode:forwards;animation-fill-mode:forwards;-webkit-animation-name:kf_el_nwnbV21v7HH_an_NFM6-59b-;animation-name:kf_el_nwnbV21v7HH_an_NFM6-59b-;-webkit-animation-timing-function:cubic-bezier(0,0,.58,1);animation-timing-function:cubic-bezier(0,0,.58,1)}</style><defs><filter x="-18.2%" y="-27.8%" width="136.5%" height="160.3%" filterUnits="objectBoundingBox" id="filter-1"><feOffset dy="3" in="SourceAlpha" result="shadowOffsetOuter1"/><feGaussianBlur stdDeviation="3" in="shadowOffsetOuter1" result="shadowBlurOuter1"/><feColorMatrix values="0 0 0 0 0 0 0 0 0 0 0 0 0 0 0 0 0 0 0.15 0" in="shadowBlurOuter1" result="shadowMatrixOuter1"/><feMerge><feMergeNode in="shadowMatrixOuter1"/><feMergeNode in="SourceGraphic"/></feMerge></filter><linearGradient x1="50%" y1="90.702%" x2="50%" y2="0%" id="linearGradient-2"><stop stop-color="#EEEFF1" offset="0%"/><stop stop-color="#D8DADE" offset="100%"/></linearGradient><rect id="path-3" x="5.275" y="7.385" width="86.062" height="54.984" rx="3.174"/><filter x="-5.2%" y="-8.2%" width="110.5%" height="116.4%" filterUnits="objectBoundingBox" id="filter-4"><feOffset in="SourceAlpha" result="shadowOffsetOuter1"/><feGaussianBlur stdDeviation="1.5" in="shadowOffsetOuter1" result="shadowBlurOuter1"/><feColorMatrix values="0 0 0 0 0.878431373 0 0 0 0 0.894117647 0 0 0 0 0.91372549 0 0 0 1 0" in="shadowBlurOuter1"/></filter><filter x="-30.4%" y="-77.6%" width="159.5%" height="255.2%" filterUnits="objectBoundingBox" id="filter-5"><feOffset dy="3" in="SourceAlpha" result="shadowOffsetOuter1"/><feGaussianBlur stdDeviation="3" in="shadowOffsetOuter1" result="shadowBlurOuter1"/><feColorMatrix values="0 0 0 0 0 0 0 0 0 0 0 0 0 0 0 0 0 0 0.15 0" in="shadowBlurOuter1" result="shadowMatrixOuter1"/><feMerge><feMergeNode in="shadowMatrixOuter1"/><feMergeNode in="SourceGraphic"/></feMerge></filter><linearGradient x1="0%" y1="100%" x2="100%" y2="0%" id="linearGradient-6"><stop stop-color="#7282FB" offset="0%"/><stop stop-color="#755BF9" offset="68.714%"/><stop stop-color="#7934F7" offset="100%"/></linearGradient><filter x="-18.3%" y="-35.7%" width="137%" height="173.4%" filterUnits="objectBoundingBox" id="filter-7"><feOffset dy="3" in="SourceAlpha" result="shadowOffsetOuter1"/><feGaussianBlur stdDeviation="3" in="shadowOffsetOuter1" result="shadowBlurOuter1"/><feColorMatrix values="0 0 0 0 0 0 0 0 0 0 0 0 0 0 0 0 0 0 0.15 0" in="shadowBlurOuter1" result="shadowMatrixOuter1"/><feMerge><feMergeNode in="shadowMatrixOuter1"/><feMergeNode in="SourceGraphic"/></feMerge></filter></defs><g id="el_lmfOuwb-Tp" fill-rule="evenodd"><path id="el_Chw_UhT114" d="M0 0h160v104H0z"/><path d="M136.368 88.288c4.616 4.686 6.172 4.694 10.886.048-4.714 4.646-4.73 6.203-.116 10.884-4.614-4.68-6.172-4.692-10.884-.044 4.712-4.649 4.73-6.202.114-10.888z" id="el_AkefIcFXEh"/><path d="M147.642 46.84l-3.3 1.254v1.672c.001 2.125 1.323 4.018 3.3 4.725 1.976-.707 3.298-2.6 3.299-4.725v-1.672l-3.3-1.254z" id="el_2l0T5MbkXa"/><path d="M139.5 4l-2.5.95v1.267a3.796 3.796 0 0 0 2.5 3.58 3.796 3.796 0 0 0 2.5-3.58V4.95L139.5 4z" id="el_Iab28vRivR"/><path d="M20 22l-3 1.14v1.52c.001 1.932 1.203 3.654 3 4.297 1.797-.643 2.999-2.365 3-4.296v-1.52L20 22z" id="el_7uLTtUGBsC"/><path d="M146.406 74.307h.855c.743 0 1.345.598 1.345 1.094v-1.094c0 .604-.61 1.094-1.345 1.094h-.855v1.642a.55.55 0 0 1-1.1 0V75.4h-.854c-.743 0-1.345-.598-1.345-1.094V75.4c0-.604.61-1.094 1.345-1.094h.855v-1.642a.55.55 0 0 1 1.1 0v1.642z" id="el_nKNCvvmbs6"/><path d="M149.358 29.905h.5c.828 0 1.5.668 1.5 1.222v-1.222c0 .675-.674 1.222-1.5 1.222h-.5v1.391a.504.504 0 0 1-.5.498.494.494 0 0 1-.5-.498v-1.39h-.5c-.828 0-1.5-.67-1.5-1.223v1.222c0-.675.674-1.222 1.5-1.222h.5v-1.391c0-.275.232-.498.5-.498.276 0 .5.215.5.498v1.391z" id="el_AP1Vjneq12"/><circle id="el_SjSElTK8nF" cx="153.952" cy="66.499" r="2.012"/><circle id="el_GV_hSLIO3R" cx="10.391" cy="47.353" r="2.012"/><circle id="el_iRXaKdNk85" cx="137.806" cy="26.255" r="2.012"/><path d="M23.513 89.133l-3.22 1.199v1.598a4.795 4.795 0 0 0 3.22 4.516 4.795 4.795 0 0 0 3.22-4.516v-1.598l-3.22-1.2z" id="el_qZ-rvibZJX"/><path d="M4.623 84.859c3.175 3.216 4.245 3.221 7.487.033-3.242 3.188-3.253 4.257-.08 7.47-3.173-3.213-4.245-3.22-7.486-.03 3.241-3.191 3.254-4.257.079-7.473z" id="el_IIwcJZFg4G"/><path d="M21.665 56.017h.58c.743 0 1.345.592 1.345 1.34v-1.039c0 .74-.61 1.339-1.345 1.339h-.58v1.083c0 .458-.366.83-.825.83a.83.83 0 0 1-.824-.83v-1.083h-.58a1.337 1.337 0 0 1-1.345-1.339v1.038c0-.74.61-1.339 1.345-1.339h.58v-1.082c0-.459.366-.83.824-.83a.83.83 0 0 1 .825.83v1.082z" id="el_elBODbNrFx"/><path d="M29.276 8.248h.58c.742 0 1.344.592 1.344 1.339V8.548c0 .74-.61 1.34-1.345 1.34h-.58v1.082c0 .458-.366.83-.824.83a.83.83 0 0 1-.825-.83V9.887h-.58a1.337 1.337 0 0 1-1.345-1.339v1.039c0-.74.61-1.34 1.345-1.34h.58V7.166c0-.458.366-.83.825-.83a.83.83 0 0 1 .825.83v1.083z" id="el_SflN_Y9qnQ"/><g id="el_6HSsZTIavLh" filter="url(#filter-1)"><g id="el_5Fhv-xZ-DGZ"><rect x="0" y="0" width="95.625" height="37.055" rx="6.348" id="el_7UOXIYDK1by"/><g id="el_b6R_KRc9F5n"><use filter="url(#filter-4)" xlink:href="#path-3" id="el_mpA2z8hYfqB"/><use fill-rule="evenodd" xlink:href="#path-3" id="el_LIc4CDs520f"/></g></g></g><g id="el_nwnbV21v7HH_an_NFM6-59b-" data-animator-group="true" data-animator-type="0"><g id="el_nwnbV21v7HH"><g id="el_okBr5rqzgVe" filter="url(#filter-5)"><g id="el_RbGlzKHthzZ"><g id="el_-m82MT6Ij3u"><rect x="-2.063" y="-2.063" width="77.251" height="33.072" rx="2.751" id="el_TVREkp4YURX"/></g></g></g><path d="M38.202 7.442c0 .96-.716 1.739-1.6 1.739-.884 0-1.601-.778-1.601-1.739 0-.96.717-1.738 1.6-1.738.885 0 1.6.778 1.6 1.738m-4.8 4.51c.027-.377.218-.727.53-1.026.069-.067.136-.134.217-.195.626-.475 1.581-.778 2.653-.778 1.073 0 2.028.303 2.654.778.08.06.148.128.217.195.312.3.502.649.53 1.026a4.667 4.667 0 0 1-3.34 1.478h-.121a4.667 4.667 0 0 1-3.34-1.478M31 8.602a5.601 5.601 0 1 0 11.203 0 5.601 5.601 0 0 0-11.203 0z" id="el_vjDgPCnF6lf"/><g id="el_kzenbpNSs3Q"><path d="M4.187 3.207a31.64 31.64 0 0 0 1.09-.544c.348-.181.62-.312.823-.397.202-.085.367-.128.49-.128a.74.74 0 0 1 .532.213c.15.142.225.316.225.528a.77.77 0 0 1-.109.375c-.07.127-.15.212-.232.247a10.97 10.97 0 0 1-2.494.667c.165.159.367.367.607.626.24.258.367.397.378.417.086.127.21.281.367.47.157.19.266.332.33.44a.743.743 0 0 1 .093.386.728.728 0 0 1-.753.722c-.22 0-.471-.177-.748-.533-.277-.355-.637-.995-1.075-1.918a77.847 77.847 0 0 1-.895 1.648c-.154.267-.3.467-.438.602a.673.673 0 0 1-.483.205.702.702 0 0 1-.54-.232.715.715 0 0 1-.213-.494c0-.162.03-.285.086-.37a13.831 13.831 0 0 1 1.685-1.965c-.49-.077-.928-.166-1.318-.262a8.276 8.276 0 0 1-1.228-.425c-.071-.034-.139-.12-.206-.247A.772.772 0 0 1 .06 2.88c0-.212.075-.386.225-.528a.723.723 0 0 1 .513-.213c.142 0 .314.043.528.131.213.09.479.213.801.379.322.166.696.35 1.108.556a13.704 13.704 0 0 1-.187-1.309A12.678 12.678 0 0 1 2.973.888.85.85 0 0 1 3.18.313a.663.663 0 0 1 .532-.24c.21 0 .386.081.52.24.135.158.206.37.206.636 0 .074-.01.217-.03.429-.018.212-.048.475-.086.78-.037.304-.09.656-.134 1.05z" id="el_JgscFkD0YV_"/><path d="M15.006 3.207a31.64 31.64 0 0 0 1.09-.544c.348-.181.621-.312.823-.397.203-.085.367-.128.491-.128a.74.74 0 0 1 .532.213c.15.142.224.316.224.528a.78.78 0 0 1-.108.375c-.071.127-.15.212-.232.247-.757.308-1.584.528-2.494.667.165.159.367.367.606.626.24.258.367.397.379.417.086.127.21.281.367.47.157.19.265.332.33.44a.743.743 0 0 1 .093.386.728.728 0 0 1-.753.722c-.22 0-.472-.177-.749-.533-.277-.355-.636-.995-1.075-1.918a77.847 77.847 0 0 1-.895 1.648c-.153.267-.3.467-.438.602a.673.673 0 0 1-.483.205.702.702 0 0 1-.539-.232.715.715 0 0 1-.213-.494c0-.162.03-.285.086-.37.539-.753 1.1-1.409 1.685-1.965-.49-.077-.929-.166-1.318-.262a8.276 8.276 0 0 1-1.229-.425c-.07-.034-.138-.12-.206-.247a.772.772 0 0 1-.1-.359c0-.212.074-.386.224-.528a.723.723 0 0 1 .513-.213c.142 0 .315.043.528.131.213.09.48.213.801.379.322.166.697.35 1.109.556a13.704 13.704 0 0 1-.187-1.309 12.678 12.678 0 0 1-.075-1.007.85.85 0 0 1 .206-.575.663.663 0 0 1 .531-.24c.21 0 .386.081.52.24.136.158.207.37.207.636 0 .074-.011.217-.03.429s-.049.475-.086.78c-.038.304-.09.656-.135 1.05z" id="el_lmDJxSbeCPZ"/><path d="M25.825 3.207a30.76 30.76 0 0 0 1.09-.544c.348-.181.622-.312.824-.397.202-.085.367-.128.49-.128a.74.74 0 0 1 .532.213c.15.142.225.316.225.528 0 .12-.038.247-.109.375-.07.127-.15.212-.232.247a10.97 10.97 0 0 1-2.494.667c.165.159.367.367.607.626.24.258.367.397.378.417.086.127.21.281.367.47.157.19.266.332.33.44a.743.743 0 0 1 .093.386.728.728 0 0 1-.753.722c-.22 0-.471-.177-.748-.533-.278-.355-.637-.995-1.075-1.918a77.847 77.847 0 0 1-.895 1.648c-.154.267-.3.467-.438.602a.673.673 0 0 1-.483.205.702.702 0 0 1-.54-.232.715.715 0 0 1-.213-.494c0-.162.03-.285.086-.37a13.831 13.831 0 0 1 1.685-1.965c-.49-.077-.929-.166-1.318-.262a8.276 8.276 0 0 1-1.228-.425c-.071-.034-.139-.12-.206-.247a.772.772 0 0 1-.101-.359c0-.212.075-.386.224-.528a.723.723 0 0 1 .513-.213c.143 0 .315.043.528.131.214.09.48.213.802.379.322.166.696.35 1.108.556a13.704 13.704 0 0 1-.187-1.309 12.678 12.678 0 0 1-.075-1.007.85.85 0 0 1 .206-.575.663.663 0 0 1 .532-.24c.21 0 .385.081.52.24.135.158.206.37.206.636 0 .074-.011.217-.03.429-.018.212-.048.475-.086.78-.037.304-.086.656-.135 1.05z" id="el_7cmXBdkSahd"/><path d="M36.649 3.207a32.57 32.57 0 0 0 1.09-.544c.347-.181.62-.312.823-.397.202-.085.367-.128.49-.128a.74.74 0 0 1 .532.213c.15.142.225.316.225.528a.77.77 0 0 1-.109.375c-.07.127-.15.212-.232.247-.756.308-1.587.528-2.494.667.165.159.367.367.607.626.24.258.367.397.378.417.086.127.21.281.367.47.157.19.266.332.33.44a.743.743 0 0 1 .093.386.728.728 0 0 1-.753.722c-.22 0-.471-.177-.748-.533-.277-.355-.637-.995-1.075-1.918a77.847 77.847 0 0 1-.895 1.648c-.154.267-.3.467-.438.602a.673.673 0 0 1-.483.205.702.702 0 0 1-.54-.232.715.715 0 0 1-.213-.494c0-.162.03-.285.086-.37a13.831 13.831 0 0 1 1.685-1.965c-.49-.077-.928-.166-1.318-.262a8.276 8.276 0 0 1-1.228-.425c-.071-.034-.139-.12-.206-.247a.772.772 0 0 1-.101-.359c0-.212.075-.386.225-.528a.723.723 0 0 1 .513-.213c.142 0 .314.043.528.131.213.09.479.213.8.379.323.166.697.35 1.11.556a13.704 13.704 0 0 1-.188-1.309 12.678 12.678 0 0 1-.075-1.007.85.85 0 0 1 .206-.575.663.663 0 0 1 .532-.24c.21 0 .386.081.52.24.135.158.206.37.206.636 0 .074-.01.217-.03.429-.018.212-.048.475-.086.78-.037.304-.09.656-.134 1.05z" id="el_Q9f16bP0NMH"/></g></g></g><g id="el_4HWJZ-EMrgH" filter="url(#filter-7)"><path d="M47.395 22.7l.417 26.308H6.348A6.348 6.348 0 0 1 0 42.659V3.96a3.174 3.174 0 0 1 4.603-2.833L47.395 22.7z" id="el_z6pImzSoRpq"/><path d="M95.207 22.7l.418 26.308H54.16a6.348 6.348 0 0 1-6.349-6.349V3.96a3.174 3.174 0 0 1 4.604-2.833L95.207 22.7z" id="el_297t6letwyQ"/><path d="M92.039 47.812H3.586l40.44-24.066a7.444 7.444 0 0 1 7.573 0l40.44 24.066z" id="el_rP-Hs63mNMg"/></g></g></svg>